<svg aria-hidden="true" style="position: absolute; width: 0; height: 0; overflow: hidden;" version="1.1" xmlns="http://www.w3.org/2000/svg" xmlns:xlink="http://www.w3.org/1999/xlink">
<defs>
<symbol id="icon-arrow-down-left" viewBox="0 0 24 24">
<title>arrow-down-left</title>
<path d="M17 16h-7.586l8.293-8.293c0.391-0.391 0.391-1.024 0-1.414s-1.024-0.391-1.414 0l-8.293 8.293v-7.586c0-0.552-0.448-1-1-1s-1 0.448-1 1v10c0 0.136 0.027 0.265 0.076 0.383s0.121 0.228 0.216 0.323c0.001 0.001 0.001 0.001 0.002 0.002 0.092 0.092 0.202 0.166 0.323 0.216 0.118 0.049 0.247 0.076 0.383 0.076h10c0.552 0 1-0.448 1-1s-0.448-1-1-1z"></path>
</symbol>
<symbol id="icon-arrow-down-right" viewBox="0 0 24 24">
<title>arrow-down-right</title>
<path d="M16 7v7.586l-8.293-8.293c-0.391-0.391-1.024-0.391-1.414 0s-0.391 1.024 0 1.414l8.293 8.293h-7.586c-0.552 0-1 0.448-1 1s0.448 1 1 1h10c0.136 0 0.265-0.027 0.383-0.076s0.228-0.121 0.324-0.217c0.092-0.092 0.166-0.202 0.217-0.324 0.049-0.118 0.076-0.247 0.076-0.383v-10c0-0.552-0.448-1-1-1s-1 0.448-1 1z"></path>
</symbol>
<symbol id="icon-email" viewBox="0 0 24 24">
<title>email</title>
<path d="M20.016 8.016v-2.016l-8.016 5.016-8.016-5.016v2.016l8.016 4.969zM20.016 3.984q0.797 0 1.383 0.609t0.586 1.406v12q0 0.797-0.586 1.406t-1.383 0.609h-16.031q-0.797 0-1.383-0.609t-0.586-1.406v-12q0-0.797 0.586-1.406t1.383-0.609h16.031z"></path>
</symbol>
<symbol id="icon-add" viewBox="0 0 24 24">
<title>add</title>
<path d="M18.984 12.984h-6v6h-1.969v-6h-6v-1.969h6v-6h1.969v6h6v1.969z"></path>
</symbol>
<symbol id="icon-thumb_down_alt" viewBox="0 0 24 24">
<title>thumb_down_alt</title>
<path d="M2.156 11.109l2.672-6.141q0.609-0.984 1.734-0.984h8.109q0.984 0 1.664 0.68t0.68 1.664v7.828q0 0.844-0.609 1.453l-6.422 6.375-0.422-0.469q-0.563-0.563-0.891-1.219-0.141-0.328-0.094-0.656l0.938-4.641h-5.531q-0.797 0-1.383-0.609t-0.586-1.406v-1.078q0-0.469 0.141-0.797zM21.984 3.984v11.016h-1.969q-0.422 0-0.727-0.281t-0.305-0.703v-9q0-0.422 0.305-0.727t0.727-0.305h1.969z"></path>
</symbol>
<symbol id="icon-thumb_up_alt" viewBox="0 0 24 24">
<title>thumb_up_alt</title>
<path d="M21.844 12.891l-2.672 6.141q-0.609 0.984-1.734 0.984h-8.109q-0.938 0-1.641-0.703t-0.703-1.641v-7.828q0-0.844 0.609-1.453l6.422-6.375 0.422 0.469q0.563 0.563 0.891 1.219 0.141 0.328 0.094 0.656l-0.938 4.641h5.531q0.797 0 1.383 0.609t0.586 1.406v1.078q0 0.422-0.141 0.797zM2.016 20.016v-11.016h1.969q0.422 0 0.727 0.281t0.305 0.703v9q0 0.422-0.305 0.727t-0.727 0.305h-1.969z"></path>
</symbol>
<symbol id="icon-add_shopping_cart" viewBox="0 0 24 24">
<title>add_shopping_cart</title>
<path d="M7.172 14.766q0 0.234 0.234 0.234h11.578v2.016h-12q-0.797 0-1.383-0.609t-0.586-1.406q0-0.469 0.234-0.938l1.359-2.484-3.609-7.594h-2.016v-1.969h3.281q0.938 1.969 1.875 3.984 0.234 0.422 1.078 2.227t1.313 2.789h7.031q3.516-6.375 3.844-7.031l1.734 0.984-3.844 6.984q-0.563 1.031-1.734 1.031h-7.453l-0.891 1.641zM17.016 18q0.797 0 1.383 0.609t0.586 1.406-0.586 1.383-1.383 0.586-1.406-0.586-0.609-1.383 0.609-1.406 1.406-0.609zM6.984 18q0.797 0 1.406 0.609t0.609 1.406-0.609 1.383-1.406 0.586-1.383-0.586-0.586-1.383 0.586-1.406 1.383-0.609zM11.016 9v-3h-3v-2.016h3v-3h1.969v3h3v2.016h-3v3h-1.969z"></path>
</symbol>
<symbol id="icon-favorite" viewBox="0 0 24 24">
<title>favorite</title>
<path d="M12 21.328l-1.453-1.313q-2.484-2.25-3.609-3.328t-2.508-2.672-1.898-2.883-0.516-2.648q0-2.297 1.57-3.891t3.914-1.594q2.719 0 4.5 2.109 1.781-2.109 4.5-2.109 2.344 0 3.914 1.594t1.57 3.891q0 1.828-1.219 3.797t-2.648 3.422-4.664 4.359z"></path>
</symbol>
<symbol id="icon-favorite_outline" viewBox="0 0 24 24">
<title>favorite_outline</title>
<path d="M12.094 18.563q2.25-2.016 3.328-3.047t2.344-2.438 1.758-2.484 0.492-2.109q0-1.5-1.008-2.484t-2.508-0.984q-1.172 0-2.18 0.656t-1.383 1.688h-1.875q-0.375-1.031-1.383-1.688t-2.18-0.656q-1.5 0-2.508 0.984t-1.008 2.484q0 1.031 0.492 2.109t1.758 2.484 2.344 2.438 3.328 3.047l0.094 0.094zM16.5 3q2.344 0 3.914 1.594t1.57 3.891q0 1.359-0.516 2.648t-1.898 2.883-2.508 2.672-3.609 3.328l-1.453 1.313-1.453-1.266q-3.234-2.906-4.664-4.359t-2.648-3.422-1.219-3.797q0-2.297 1.57-3.891t3.914-1.594q2.719 0 4.5 2.109 1.781-2.109 4.5-2.109z"></path>
</symbol>
<symbol id="icon-volunteer_activism" viewBox="0 0 24 24">
<title>volunteer_activism</title>
<path d="M20.016 17.016q0.844 0 1.43 0.586t0.586 1.383l-8.016 3-7.031-1.969v-9h1.969l7.266 2.672q0.797 0.328 0.797 1.125 0 0.469-0.352 0.82t-0.867 0.352h-2.813l-1.734-0.656-0.328 0.938 2.063 0.75h7.031zM15.984 3.234q1.078-1.219 2.719-1.219 1.359 0 2.32 0.961t0.961 2.32q0 1.031-0.984 2.461t-1.969 2.391-3.047 2.836q-2.063-1.875-3.047-2.836t-1.969-2.391-0.984-2.461q0-1.359 0.984-2.32t2.344-0.961q1.594 0 2.672 1.219zM0.984 11.016h4.031v10.969h-4.031v-10.969z"></path>
</symbol>
<symbol id="icon-bookmark-outline-add" viewBox="0 0 20 20">
<title>bookmark-outline-add</title>
<path d="M2 2c0-1.1 0.9-2 2-2h12c1.105 0 2 0.895 2 2v0 18l-8-4-8 4v-18zM4 2v15l6-3 6 3v-15h-12zM9 7v-2h2v2h2v2h-2v2h-2v-2h-2v-2h2z"></path>
</symbol>
<symbol id="icon-cheveron-down" viewBox="0 0 20 20">
<title>cheveron-down</title>
<path d="M9.293 12.95l0.707 0.707 5.657-5.657-1.414-1.414-4.243 4.242-4.243-4.242-1.414 1.414z"></path>
</symbol>
<symbol id="icon-close" viewBox="0 0 20 20">
<title>close</title>
<path d="M10 8.586l-7.071-7.071-1.414 1.414 7.071 7.071-7.071 7.071 1.414 1.414 7.071-7.071 7.071 7.071 1.414-1.414-7.071-7.071 7.071-7.071-1.414-1.414-7.071 7.071z"></path>
</symbol>
<symbol id="icon-date-add" viewBox="0 0 20 20">
<title>date-add</title>
<path d="M15 2h2c1.105 0 2 0.895 2 2v0 14c0 1.105-0.895 2-2 2v0h-14c-1.105 0-2-0.895-2-2v0-14c0-1.1 0.9-2 2-2h2v-2h2v2h6v-2h2v2zM3 6v12h14v-12h-14zM9 11v-2h2v2h2v2h-2v2h-2v-2h-2v-2h2z"></path>
</symbol>
<symbol id="icon-trash" viewBox="0 0 20 20">
<title>trash</title>
<path d="M6 2l2-2h4l2 2h4v2h-16v-2h4zM3 6h14l-1 14h-12l-1-14zM8 8v10h1v-10h-1zM11 8v10h1v-10h-1z"></path>
</symbol>
<symbol id="icon-chevron-left" viewBox="0 0 20 20">
<title>chevron-left</title>
<path d="M12.452 4.516c0.446 0.436 0.481 1.043 0 1.576l-3.747 3.908 3.747 3.908c0.481 0.533 0.446 1.141 0 1.574-0.445 0.436-1.197 0.408-1.615 0-0.418-0.406-4.502-4.695-4.502-4.695-0.223-0.217-0.335-0.502-0.335-0.787s0.112-0.57 0.335-0.789c0 0 4.084-4.287 4.502-4.695s1.17-0.436 1.615 0z"></path>
</symbol>
<symbol id="icon-chevron-right" viewBox="0 0 20 20">
<title>chevron-right</title>
<path d="M9.163 4.516c0.418 0.408 4.502 4.695 4.502 4.695 0.223 0.219 0.335 0.504 0.335 0.789s-0.112 0.57-0.335 0.787c0 0-4.084 4.289-4.502 4.695-0.418 0.408-1.17 0.436-1.615 0-0.446-0.434-0.481-1.041 0-1.574l3.747-3.908-3.747-3.908c-0.481-0.533-0.446-1.141 0-1.576s1.197-0.409 1.615 0z"></path>
</symbol>
<symbol id="icon-chevron-small-left" viewBox="0 0 20 20">
<title>chevron-small-left</title>
<path d="M12.141 13.418c0.268 0.271 0.268 0.709 0 0.978s-0.701 0.272-0.969 0l-3.83-3.908c-0.268-0.27-0.268-0.707 0-0.979l3.83-3.908c0.267-0.27 0.701-0.27 0.969 0s0.268 0.709 0 0.978l-3.141 3.421 3.141 3.418z"></path>
</symbol>
<symbol id="icon-chevron-small-right" viewBox="0 0 20 20">
<title>chevron-small-right</title>
<path d="M11 10l-3.141-3.42c-0.268-0.27-0.268-0.707 0-0.978 0.268-0.27 0.701-0.27 0.969 0l3.83 3.908c0.268 0.271 0.268 0.709 0 0.979l-3.83 3.908c-0.267 0.272-0.701 0.27-0.969 0s-0.268-0.707 0-0.978l3.141-3.419z"></path>
</symbol>
<symbol id="icon-chevron-thin-left" viewBox="0 0 20 20">
<title>chevron-thin-left</title>
<path d="M13.891 17.418c0.268 0.272 0.268 0.709 0 0.979s-0.701 0.271-0.969 0l-7.83-7.908c-0.268-0.27-0.268-0.707 0-0.979l7.83-7.908c0.268-0.27 0.701-0.27 0.969 0s0.268 0.709 0 0.979l-7.141 7.419 7.141 7.418z"></path>
</symbol>
<symbol id="icon-chevron-thin-right" viewBox="0 0 20 20">
<title>chevron-thin-right</title>
<path d="M13.25 10l-7.141-7.42c-0.268-0.27-0.268-0.707 0-0.979 0.268-0.27 0.701-0.27 0.969 0l7.83 7.908c0.268 0.271 0.268 0.709 0 0.979l-7.83 7.908c-0.268 0.271-0.701 0.27-0.969 0s-0.268-0.707 0-0.979l7.141-7.417z"></path>
</symbol>
<symbol id="icon-cross" viewBox="0 0 20 20">
<title>cross</title>
<path d="M14.348 14.849c-0.469 0.469-1.229 0.469-1.697 0l-2.651-3.030-2.651 3.029c-0.469 0.469-1.229 0.469-1.697 0-0.469-0.469-0.469-1.229 0-1.697l2.758-3.15-2.759-3.152c-0.469-0.469-0.469-1.228 0-1.697s1.228-0.469 1.697 0l2.652 3.031 2.651-3.031c0.469-0.469 1.228-0.469 1.697 0s0.469 1.229 0 1.697l-2.758 3.152 2.758 3.15c0.469 0.469 0.469 1.229 0 1.698z"></path>
</symbol>
<symbol id="icon-new-message" viewBox="0 0 20 20">
<title>new-message</title>
<path d="M18.174 1.826c-1.102-1.102-2.082-0.777-2.082-0.777l-8.639 8.632-1.453 4.319 4.317-1.454 8.634-8.638c0 0 0.324-0.98-0.777-2.082zM10.605 11.605l-0.471 0.47-1.473 0.5c-0.104-0.24-0.234-0.477-0.498-0.74s-0.5-0.394-0.74-0.498l0.5-1.473 0.471-0.47c0 0 0.776-0.089 1.537 0.673 0.762 0.761 0.674 1.538 0.674 1.538zM16 17h-13v-13h5l2-2h-7c-1.1 0-2 0.9-2 2v13c0 1.1 0.9 2 2 2h13c1.1 0 2-0.9 2-2v-7l-2 2v5z"></path>
</symbol>
<symbol id="icon-shopping-cart1" viewBox="0 0 20 20">
<title>shopping-cart1</title>
<path d="M13 17c0 1.104 0.894 2 2 2 1.104 0 2-0.896 2-2 0-1.106-0.896-2-2-2-1.106 0-2 0.894-2 2zM3 17c0 1.104 0.895 2 2 2 1.103 0 2-0.896 2-2 0-1.106-0.897-2-2-2-1.105 0-2 0.894-2 2zM6.547 12.172l11.068-3.162c0.211-0.061 0.385-0.289 0.385-0.51v-5.5h-14v-1.6c0-0.22-0.181-0.4-0.399-0.4h-3.202c-0.219 0-0.399 0.18-0.399 0.4v1.6h2l1.91 8.957 0.090 0.943v1.649c0 0.219 0.18 0.4 0.4 0.4h13.2c0.22 0 0.4-0.182 0.4-0.4v-1.549h-11.248c-1.15 0-1.174-0.551-0.205-0.828z"></path>
</symbol>
<symbol id="icon-facebook" viewBox="0 0 20 20">
<title>facebook</title>
<path d="M17 1h-14c-1.1 0-2 0.9-2 2v14c0 1.101 0.9 2 2 2h7v-7h-2v-2.475h2v-2.050c0-2.164 1.212-3.684 3.766-3.684l1.803 0.002v2.605h-1.197c-0.994 0-1.372 0.746-1.372 1.438v1.69h2.568l-0.568 2.474h-2v7h4c1.1 0 2-0.899 2-2v-14c0-1.1-0.9-2-2-2z"></path>
</symbol>
<symbol id="icon-instagram" viewBox="0 0 20 20">
<title>instagram</title>
<path d="M17 1h-14c-1.1 0-2 0.9-2 2v14c0 1.101 0.9 2 2 2h14c1.1 0 2-0.899 2-2v-14c0-1.1-0.9-2-2-2zM9.984 15.523c3.059 0 5.538-2.481 5.538-5.539 0-0.338-0.043-0.664-0.103-0.984h1.581v7.216c0 0.382-0.31 0.69-0.693 0.69h-12.614c-0.383 0-0.693-0.308-0.693-0.69v-7.216h1.549c-0.061 0.32-0.104 0.646-0.104 0.984 0 3.059 2.481 5.539 5.539 5.539zM6.523 9.984c0-1.912 1.55-3.461 3.462-3.461s3.462 1.549 3.462 3.461-1.551 3.462-3.462 3.462c-1.913 0-3.462-1.55-3.462-3.462zM16.307 6h-1.615c-0.382 0-0.692-0.312-0.692-0.692v-1.617c0-0.382 0.31-0.691 0.691-0.691h1.615c0.384 0 0.694 0.309 0.694 0.691v1.616c0 0.381-0.31 0.693-0.693 0.693z"></path>
</symbol>
<symbol id="icon-twitter" viewBox="0 0 20 20">
<title>twitter</title>
<path d="M17.316 6.246c0.008 0.162 0.011 0.326 0.011 0.488 0 4.99-3.797 10.742-10.74 10.742-2.133 0-4.116-0.625-5.787-1.697 0.296 0.035 0.596 0.053 0.9 0.053 1.77 0 3.397-0.604 4.688-1.615-1.651-0.031-3.046-1.121-3.526-2.621 0.23 0.043 0.467 0.066 0.71 0.066 0.345 0 0.679-0.045 0.995-0.131-1.727-0.348-3.028-1.873-3.028-3.703 0-0.016 0-0.031 0-0.047 0.509 0.283 1.092 0.453 1.71 0.473-1.013-0.678-1.68-1.832-1.68-3.143 0-0.691 0.186-1.34 0.512-1.898 1.861 2.285 4.644 3.787 7.781 3.945-0.064-0.277-0.097-0.564-0.097-0.861 0-2.084 1.689-3.773 3.774-3.773 1.086 0 2.067 0.457 2.756 1.191 0.859-0.17 1.667-0.484 2.397-0.916-0.282 0.881-0.881 1.621-1.66 2.088 0.764-0.092 1.49-0.293 2.168-0.594-0.506 0.758-1.146 1.422-1.884 1.953z"></path>
</symbol>
</defs>
</svg>
